<svg xmlns="http://www.w3.org/2000/svg" width="41" height="18" fill="none" viewBox="0 0 41 18">
  <path fill="#fff" d="m39 11-2-2h4l-2 2ZM.602 14V4.2H2.17L4.2 8.624 6.23 4.2h1.568V14H6.384V7.028l-1.596 3.5H3.612L2.016 7.042V14H.602Zm11.992.168c-.662 0-1.255-.15-1.777-.448a3.201 3.201 0 0 1-1.232-1.26c-.3-.55-.448-1.195-.448-1.932 0-.737.149-1.377.448-1.918a3.18 3.18 0 0 1 1.231-1.274c.523-.299 1.12-.448 1.792-.448.672 0 1.265.15 1.778.448.523.299.93.723 1.219 1.274.298.541.447 1.18.447 1.918 0 .737-.149 1.381-.447 1.932a3.2 3.2 0 0 1-1.232 1.26c-.514.299-1.106.448-1.778.448Zm0-1.414c.355 0 .682-.08.98-.238.3-.159.537-.401.715-.728.186-.336.28-.756.28-1.26 0-.513-.094-.933-.28-1.26a1.734 1.734 0 0 0-.714-.728 1.975 1.975 0 0 0-.966-.238c-.355 0-.682.08-.98.238a1.82 1.82 0 0 0-.729.728c-.177.327-.266.747-.266 1.26 0 .765.192 1.33.575 1.694.392.355.854.532 1.386.532ZM17.867 14v-1.288h1.694V8.806c0-.308-.15-.462-.448-.462h-1.106V7.056h1.666c.383 0 .695.112.938.336.243.215.364.518.364.91v.168h.07c.103-.523.322-.915.658-1.176.345-.27.845-.406 1.498-.406h1.078v1.568h-1.512c-.55 0-.975.191-1.274.574-.299.383-.448.84-.448 1.372v2.31h2.156V14h-5.334Zm11.6.168c-.671 0-1.264-.15-1.777-.448a3.231 3.231 0 0 1-1.204-1.274c-.29-.541-.434-1.171-.434-1.89 0-.728.14-1.367.42-1.918.289-.55.69-.98 1.204-1.288.522-.308 1.124-.462 1.806-.462.672 0 1.25.154 1.736.462.485.299.858.7 1.12 1.204.27.504.406 1.06.406 1.666v.308c0 .103-.005.22-.014.35h-5.222c.046.644.256 1.134.63 1.47.373.327.812.49 1.316.49.438 0 .784-.089 1.036-.266.26-.187.452-.439.574-.756h1.498a3.212 3.212 0 0 1-1.05 1.68c-.532.448-1.214.672-2.044.672Zm0-5.992c-.457 0-.863.14-1.217.42-.355.27-.584.653-.686 1.148h3.696c-.038-.467-.22-.845-.546-1.134-.327-.29-.742-.434-1.246-.434Z"/>
</svg>
