<svg xmlns="http://www.w3.org/2000/svg" width="147" height="24" fill="none" viewBox="0 0 147 24">
  <path fill="#fff" d="M41.68 18.222c-.852 0-1.616-.197-2.294-.592a4.18 4.18 0 0 1-1.573-1.665c-.382-.728-.574-1.579-.574-2.553s.192-1.82.574-2.535a4.31 4.31 0 0 1 1.591-1.665c.666-.406 1.424-.61 2.275-.61 1.172 0 2.116.296 2.831.888.728.58 1.19 1.381 1.388 2.405h-2.054a1.827 1.827 0 0 0-.758-1.054c-.37-.26-.845-.389-1.425-.389-.42 0-.82.111-1.203.333-.37.222-.672.555-.906.999-.222.432-.333.974-.333 1.628 0 .641.111 1.184.333 1.628.234.444.537.783.907 1.018a2.36 2.36 0 0 0 1.202.332c.592 0 1.067-.129 1.425-.388.357-.259.61-.617.758-1.073h2.053c-.246 1.011-.727 1.813-1.442 2.405-.716.592-1.64.888-2.776.888Zm10.963 0c-.876 0-1.66-.197-2.35-.592a4.229 4.229 0 0 1-1.628-1.665c-.394-.728-.592-1.579-.592-2.553s.198-1.82.592-2.535a4.197 4.197 0 0 1 1.628-1.683c.69-.395 1.48-.592 2.368-.592.888 0 1.671.197 2.35.592a4.09 4.09 0 0 1 1.61 1.683c.394.716.591 1.56.591 2.535 0 .974-.197 1.825-.592 2.553a4.23 4.23 0 0 1-1.628 1.665c-.678.395-1.461.592-2.35.592Zm0-1.869c.468 0 .9-.104 1.295-.314.394-.21.709-.53.943-.962.247-.444.37-.999.37-1.665 0-.678-.123-1.233-.37-1.665a2.292 2.292 0 0 0-.943-.962 2.61 2.61 0 0 0-1.277-.315c-.468 0-.9.105-1.295.315-.394.21-.715.53-.962.962-.234.432-.351.987-.351 1.665 0 1.011.253 1.757.758 2.238a2.64 2.64 0 0 0 1.832.704Zm10.593 1.869c-.765 0-1.45-.179-2.053-.537-.605-.37-1.086-.912-1.444-1.627-.345-.716-.517-1.598-.517-2.646 0-1.048.178-1.93.536-2.646.358-.715.839-1.251 1.443-1.609a3.915 3.915 0 0 1 2.053-.555c.704 0 1.283.136 1.74.407.456.259.795.592 1.017.999V4.68h1.961V18h-1.683l-.167-1.35h-.111a2.864 2.864 0 0 1-1.054 1.147c-.444.283-1.018.425-1.721.425Zm.407-1.869c.703 0 1.283-.246 1.739-.74.469-.493.703-1.227.703-2.201 0-.987-.234-1.72-.703-2.202-.456-.493-1.036-.74-1.739-.74-.703 0-1.289.247-1.758.74-.456.494-.684 1.234-.684 2.22 0 .975.228 1.709.684 2.202.47.481 1.055.722 1.758.722Zm11.296 1.869c-.888 0-1.67-.197-2.35-.592A4.27 4.27 0 0 1 71 15.947c-.382-.716-.574-1.548-.574-2.498 0-.962.185-1.807.555-2.534a4.239 4.239 0 0 1 1.591-1.702c.691-.407 1.487-.611 2.387-.611.888 0 1.653.204 2.294.61a3.994 3.994 0 0 1 1.48 1.591c.358.666.536 1.4.536 2.202v.407c0 .136-.006.29-.018.462h-6.9c.061.851.339 1.499.832 1.943a2.557 2.557 0 0 0 1.739.648c.58 0 1.036-.118 1.369-.352a2.13 2.13 0 0 0 .758-.999h1.98a4.244 4.244 0 0 1-1.388 2.22c-.703.592-1.603.888-2.7.888Zm0-7.918a2.53 2.53 0 0 0-1.61.555c-.468.358-.77.863-.906 1.517h4.884c-.049-.617-.29-1.116-.721-1.498-.432-.383-.98-.574-1.647-.574ZM81.796 18v-1.702h2.238v-5.161c0-.408-.197-.611-.592-.611h-1.461V8.824h2.201c.506 0 .919.148 1.24.444.32.284.48.684.48 1.202v.223h.093c.136-.691.426-1.21.87-1.554.456-.358 1.116-.537 1.98-.537h1.424v2.072H88.27c-.728 0-1.29.253-1.684.758-.395.506-.592 1.11-.592 1.813v3.053h2.85V18h-7.05Zm15.218.111c-.456 0-.845-.148-1.166-.444a1.485 1.485 0 0 1-.48-1.11c0-.432.16-.795.48-1.091.321-.296.71-.444 1.166-.444.469 0 .857.147 1.165.444.321.296.481.66.481 1.091 0 .432-.16.802-.48 1.11-.309.296-.698.444-1.166.444Zm10.889-2.757a4.343 4.343 0 0 1-1.572-.277l-.463.555c-.148.185-.191.364-.129.537.074.16.24.24.499.24h2.424c1.073 0 1.936.228 2.59.684.666.445.999 1.129.999 2.054 0 .58-.148 1.104-.444 1.573-.284.48-.747.863-1.388 1.146-.629.284-1.461.426-2.497.426-1.308 0-2.362-.247-3.164-.74-.789-.481-1.184-1.209-1.184-2.183 0-.345.08-.666.241-.962a3.25 3.25 0 0 1 .666-.777c-.333-.247-.537-.592-.611-1.036-.062-.456.074-.894.407-1.314l.814-1.035c-.58-.617-.869-1.376-.869-2.276 0-.604.141-1.16.425-1.665a3.282 3.282 0 0 1 1.258-1.24c.555-.308 1.221-.462 1.998-.462.506 0 .974.074 1.406.222h3.46v1.295l-1.61.092v.167c.259.481.389 1.011.389 1.591 0 .604-.148 1.165-.444 1.684a3.153 3.153 0 0 1-1.24 1.239c-.543.308-1.196.463-1.961.463Zm0-1.572c.543 0 .987-.16 1.332-.481.358-.32.537-.765.537-1.332 0-.543-.179-.974-.537-1.295-.345-.32-.789-.481-1.332-.481-.555 0-1.011.16-1.369.481-.345.32-.518.752-.518 1.295 0 .567.173 1.011.518 1.332.358.32.814.481 1.369.481Zm-2.479 5.439c0 .493.234.857.703 1.091.481.235 1.079.352 1.795.352.764 0 1.369-.13 1.813-.389.444-.258.666-.622.666-1.091 0-.395-.161-.71-.481-.944-.321-.221-.864-.332-1.628-.332h-2.165c-.469.37-.703.807-.703 1.313Zm9.65-1.221v-1.702h2.238v-5.161c0-.408-.197-.611-.592-.611h-1.461V8.824h2.201c.506 0 .919.148 1.24.444.321.284.481.684.481 1.202v.223h.092c.136-.691.426-1.21.87-1.554.456-.358 1.116-.537 1.979-.537h1.425v2.072h-1.998c-.728 0-1.289.253-1.684.758-.394.506-.592 1.11-.592 1.813v3.053h2.849V18h-7.048Zm14.386.222c-.728 0-1.338-.123-1.832-.37-.493-.259-.863-.598-1.11-1.018-.246-.431-.37-.9-.37-1.405 0-.9.327-1.604.981-2.11.666-.505 1.603-.758 2.812-.758h2.368v-.204c0-1.38-.642-2.071-1.924-2.071-.531 0-.981.117-1.351.351-.357.222-.598.586-.721 1.091h-1.961c.098-.961.512-1.72 1.239-2.275.74-.567 1.671-.851 2.794-.851 1.356 0 2.343.333 2.96.999.616.666.925 1.585.925 2.756V18h-1.665l-.167-1.35h-.129a4.168 4.168 0 0 1-1.018 1.11c-.407.308-1.017.462-1.831.462Zm.37-1.646c.801 0 1.4-.241 1.794-.722.407-.493.629-1.116.666-1.868h-2.146c-.703 0-1.202.117-1.498.351-.284.222-.426.537-.426.944 0 .406.142.727.426.961.296.223.69.334 1.184.334ZM136.297 18V8.824h1.628l.167 1.073h.092a2.11 2.11 0 0 1 .74-.925c.333-.247.728-.37 1.184-.37.444 0 .833.111 1.166.333.333.222.58.543.74.962h.074c.16-.37.413-.678.758-.925.346-.247.771-.37 1.277-.37.678 0 1.19.222 1.535.666.358.444.537 1.067.537 1.868V18h-1.887v-6.475c0-.37-.08-.66-.241-.87-.148-.221-.388-.332-.721-.332-.333 0-.611.129-.833.388-.209.259-.314.623-.314 1.091V18h-1.906v-6.475c0-.37-.074-.66-.222-.87-.148-.221-.388-.332-.721-.332-.333 0-.611.129-.833.388-.222.259-.333.623-.333 1.091V18h-1.887Z"/>
  <path stroke="#fff" stroke-width="2" d="M10.5 8 2 12.5l8.5 5.5L16 5m3.5 12 8.5-4.5L19.5 7 14 20"/>
</svg>
